<svg width="393" height="393" viewBox="0 0 393 393" fill="none" xmlns="http://www.w3.org/2000/svg">
<path d="M194.75 51.8883C193.338 52.748 192.969 53.6691 191.403 60.0861C189.684 67.3013 188.763 70.4023 187.381 73.5341C184.219 80.7186 184.372 87.1048 187.811 93.8902C188.855 95.9473 189.162 96.807 188.916 97.0526C188.732 97.2369 188.64 97.8509 188.732 98.4036C188.855 99.0791 188.609 100.031 187.934 101.566C187.381 102.794 186.522 105.496 186 107.584L185.017 111.391L182.561 111.606C173.626 112.343 164.477 114.461 155.112 117.961C149.647 119.988 146.423 121.431 140.59 124.378C134.51 127.479 131.133 129.69 122.444 136.23C111.882 144.213 107.031 147.344 101.627 149.586C97.6667 151.274 97.7281 151.244 97.4825 150.077C96.9606 147.774 95.2719 145.594 93.0306 144.428C92.263 144.028 91.3112 143.844 89.6532 143.844C87.0435 143.844 85.5697 144.458 83.9424 146.208C82.2845 147.958 81.8239 149.125 81.8239 151.674C81.8239 154.375 82.4687 155.849 84.403 157.599L85.6311 158.705L84.2188 161.56C82.5301 165.029 69.6962 191.526 67.2399 196.654C66.2574 198.68 62.7266 205.987 59.3492 212.926C56.0026 219.834 49.5856 233.067 45.1337 242.309L36.9974 259.134H35.9842H34.9709L36.2605 261.038C38.1948 263.955 44.1819 269.727 47.5899 271.999C55.4499 277.188 65.582 280.78 77.0649 282.377C82.5301 283.144 96.5 283.114 102.088 282.377C117.102 280.32 129.26 275.1 137.581 267.209C140.129 264.753 143.998 260.086 143.998 259.411C143.998 259.257 143.629 259.134 143.138 259.134C142.309 259.134 141.91 258.305 129.414 232.515C122.321 217.869 111.452 195.456 105.281 182.684L94.0745 159.503L96.9913 159.012C107.185 157.292 115.935 153.239 128.8 144.305C131.164 142.677 134.603 140.313 136.445 139.085C145.809 132.822 159.012 127.51 171.538 124.992C175.346 124.225 181.333 123.427 183.298 123.427C183.728 123.427 183.85 124.164 184.157 128.708C184.833 138.44 186.675 147.129 189.96 155.941C190.881 158.397 190.974 158.919 190.667 159.503C190.237 160.301 190.452 160.884 191.188 160.884C191.588 160.884 191.618 161.499 191.434 166.012C191.311 168.867 191.158 171.385 191.127 171.631C191.096 171.876 190.943 174.363 190.789 177.157C190.667 179.951 190.544 182.285 190.513 182.377C190.482 182.469 190.359 184.956 190.206 187.903C190.052 190.851 189.93 193.338 189.899 193.43C189.868 193.522 189.745 196.009 189.592 198.956C189.438 201.904 189.316 204.391 189.285 204.483C189.254 204.575 189.131 207.185 189.009 210.316C188.855 213.448 188.702 216.211 188.671 216.457C188.64 216.703 188.487 219.466 188.394 222.598C188.272 225.729 188.118 228.769 188.057 229.352C187.75 232.054 187.228 253.332 187.351 257.599C187.473 261.222 187.658 262.819 188.149 264.293C188.886 266.534 188.763 267.148 187.381 268.806C185.386 271.139 184.956 274.885 186.307 277.955C186.859 279.214 186.89 279.368 186.429 279.828C186 280.258 186 280.35 186.491 280.872C186.982 281.425 186.921 281.916 185.263 290.175C183.206 300.522 183.021 303.132 183.728 311.606C184.004 314.861 184.219 318.422 184.219 319.497V321.462H174.025C163.924 321.462 163.771 321.462 162.235 322.199C160.209 323.15 158.705 324.501 157.783 326.221L157.047 327.602H153.117C147.437 327.602 145.072 328.554 142.493 331.932C141.634 333.068 141.204 333.344 139.822 333.651C137.397 334.204 135.892 335.094 134.572 336.721C132.116 339.761 131.686 340.099 128.769 340.958C127.265 341.419 125.545 342.064 124.931 342.371C123.611 343.046 122.199 344.612 122.199 345.441C122.199 346.024 123.396 346.024 196.5 346.024C269.604 346.024 270.802 346.024 270.802 345.441C270.802 343.844 268.284 342.156 264.201 340.958C261.437 340.16 260.854 339.761 259.012 337.458C257.139 335.094 255.143 333.897 252.656 333.559C251.428 333.405 251.152 333.221 250.845 332.515C250.353 331.287 248.481 329.598 246.546 328.616C244.95 327.817 244.581 327.756 240.313 327.664L235.769 327.541L235.462 326.743C234.91 325.33 233.16 323.457 231.471 322.536L229.813 321.615L219.313 321.523L208.781 321.431V319.159C208.781 317.931 208.996 314.308 209.273 311.115C209.917 303.378 209.764 300.614 208.075 292.14C205.987 281.64 205.987 281.609 206.417 280.903C206.694 280.473 206.694 280.166 206.448 279.798C206.202 279.399 206.264 278.969 206.663 277.986C208.044 274.916 207.615 271.139 205.619 268.806C204.237 267.148 204.114 266.534 204.851 264.293C205.742 261.56 205.865 256.494 205.435 242.77C205.22 236.476 205.005 230.795 204.943 230.12C204.882 229.445 204.729 226.466 204.636 223.519C204.544 220.571 204.391 217.655 204.329 217.071C204.268 216.488 204.114 213.725 204.022 210.931C203.9 208.137 203.777 205.527 203.715 205.097C203.654 204.667 203.531 202.18 203.408 199.57C203.286 196.961 203.163 194.474 203.101 194.044C203.04 193.614 202.917 191.127 202.794 188.517C202.671 185.907 202.549 183.421 202.487 182.991C202.426 182.561 202.272 180.074 202.18 177.464C202.057 174.854 201.904 172.49 201.873 172.245C201.842 171.999 201.689 169.389 201.566 166.503L201.351 161.191L202.057 160.608C202.733 160.055 202.764 159.994 202.272 159.441C201.935 159.073 201.842 158.735 202.027 158.397C202.61 157.354 204.514 151.735 205.558 148.051C207.492 141.02 208.505 134.664 208.935 127.019C209.119 123.856 209.211 123.427 209.702 123.427C211.023 123.427 216.826 124.102 219.22 124.532C228.646 126.221 240.068 130.089 248.818 134.572C250.845 135.585 254.775 137.98 257.569 139.853C260.363 141.726 264.815 144.735 267.424 146.485C278.631 154.038 287.842 157.998 297.145 159.196C298.005 159.319 298.742 159.503 298.742 159.626C298.742 159.748 290.574 176.697 280.627 197.268C270.648 217.869 259.841 240.221 256.586 246.915L250.691 259.134H249.678H248.665L249.954 261.069C250.691 262.113 252.81 264.507 254.683 266.38C263.187 274.916 275.192 280.197 290.912 282.377C296.47 283.114 310.439 283.114 315.935 282.346C331.532 280.197 343.537 274.854 352.011 266.38C353.884 264.507 356.003 262.113 356.74 261.069L358.029 259.134H357.016H355.972L349.494 245.686C345.902 238.318 334.971 215.69 325.177 195.456L307.338 158.643L308.72 157.446C312.005 154.56 312.159 149.494 309.058 146.208C307.431 144.458 305.957 143.844 303.347 143.844C301.597 143.844 300.768 143.998 299.816 144.52C297.667 145.656 296.009 147.805 295.518 150.077C295.272 151.244 295.395 151.274 291.096 149.494C286.46 147.559 280.964 144.059 271.354 136.875C261.314 129.352 258.858 127.725 252.226 124.317C238.103 117.01 224.133 112.773 210.255 111.575L207.891 111.391L207.4 109.18C206.755 106.294 205.527 102.426 204.729 100.921C204.329 100.123 204.176 99.3247 204.237 98.5878C204.329 97.9737 204.237 97.2369 204.053 96.9298C203.777 96.5 203.869 96.1315 204.422 95.2412C205.68 93.2148 206.694 90.7892 207.308 88.2715C207.83 86.2758 207.922 85.2012 207.799 82.438C207.615 78.8764 207.277 77.6176 205.005 72.1524C204.391 70.7094 203.04 66.0732 202.027 61.8669C200.983 57.6298 199.908 53.7919 199.663 53.3314C199.141 52.2875 197.575 51.2743 196.5 51.2743C196.07 51.2743 195.303 51.5506 194.75 51.8883ZM90.8199 150.507C91.0349 150.722 91.1884 151.244 91.1884 151.674C91.1884 152.103 91.0349 152.625 90.8199 152.84C90.605 153.055 90.0831 153.209 89.6532 153.209C89.2234 153.209 88.7014 153.055 88.4865 152.84C88.2716 152.625 88.1181 152.103 88.1181 151.674C88.1181 151.244 88.2716 150.722 88.4865 150.507C88.7014 150.292 89.2234 150.138 89.6532 150.138C90.0831 150.138 90.605 150.292 90.8199 150.507ZM304.514 150.507C304.729 150.722 304.882 151.244 304.882 151.674C304.882 152.103 304.729 152.625 304.514 152.84C304.299 153.055 303.777 153.209 303.347 153.209C302.917 153.209 302.395 153.055 302.18 152.84C301.965 152.625 301.812 152.103 301.812 151.674C301.812 151.244 301.965 150.722 302.18 150.507C302.395 150.292 302.917 150.138 303.347 150.138C303.777 150.138 304.299 150.292 304.514 150.507ZM88.2409 159.534C88.7014 159.718 88.7321 164.385 88.7321 209.426V259.134H64.0468H39.3308L41.5721 254.437C42.8309 251.889 46.3004 244.643 49.34 238.41C52.3796 232.146 62.2046 211.821 71.2313 193.184C80.2274 174.578 87.6268 159.349 87.6882 159.349C87.7189 159.349 87.9646 159.441 88.2409 159.534ZM309.856 168.622C316.887 183.236 352.687 257.108 353.209 258.183L353.731 259.134H328.984H304.268V209.457C304.268 182.131 304.36 159.656 304.483 159.564C304.575 159.441 304.851 159.349 305.036 159.349C305.22 159.349 307.4 163.525 309.856 168.622ZM96.7149 169.788C99.3861 175.284 108.843 194.811 117.747 213.233C126.65 231.624 135.309 249.494 136.967 252.902L139.976 259.134H115.26H90.5743V209.365V159.626L91.2498 159.718C91.8024 159.779 92.7849 161.621 96.7149 169.788ZM302.211 209.303L302.119 258.981L277.587 259.073L253.025 259.134L255.112 254.775C256.279 252.349 258.459 247.836 259.963 244.704C261.499 241.572 271.047 221.83 281.241 200.799C303.224 155.389 301.075 159.656 301.75 159.656C302.242 159.656 302.272 162.389 302.211 209.303Z" fill="white" fill-opacity="0.1"/>
</svg>
